<svg id="Layer_1" data-name="Layer 1" xmlns="http://www.w3.org/2000/svg" viewBox="0 0 104.23 77.93"><defs><style>.cls-1{font-size:36px;fill:#e34234;}.cls-1,.cls-17,.cls-6{stroke:#000;stroke-width:0.5px;}.cls-1,.cls-16,.cls-17,.cls-6{stroke-miterlimit:10;}.cls-1,.cls-11,.cls-7,.cls-9{font-family:AmericanTypewriter-Semibold, American Typewriter;}.cls-10,.cls-11,.cls-2,.cls-3,.cls-4,.cls-7,.cls-8,.cls-9{font-weight:700;}.cls-2{letter-spacing:-0.02em;}.cls-3{letter-spacing:-0.02em;}.cls-5{font-family:Phosphate-Solid, Phosphate;letter-spacing:0em;}.cls-6{font-size:18px;font-family:AmericanTypewriter-Bold, American Typewriter;}.cls-13,.cls-6{fill:none;}.cls-10,.cls-11,.cls-12,.cls-7,.cls-8,.cls-9{font-size:14px;}.cls-7{letter-spacing:0em;}.cls-11,.cls-8{letter-spacing:0em;}.cls-10{letter-spacing:0em;}.cls-12,.cls-16{fill:#050000;}.cls-12{stroke:#160202;font-family:MyriadPro-Regular, Myriad Pro;}.cls-14{fill:#ba0808;}.cls-15{fill:#c10c0c;}.cls-16{stroke:#231f20;stroke-linecap:round;}.cls-17{fill:#0f0101;}</style></defs><title>logo</title><text class="cls-1" transform="translate(0.93 56.4)"><tspan class="cls-2">W</tspan><tspan class="cls-3" x="32.51" y="0">O</tspan><tspan class="cls-4" x="55.22" y="0">W</tspan><tspan class="cls-5" x="88.63" y="0">!</tspan></text><text class="cls-6" transform="translate(8.4 69.88)"><tspan class="cls-4">w</tspan><tspan class="cls-7" x="16.06" y="0">ood </tspan><tspan class="cls-8" x="43.24" y="0">o</tspan><tspan class="cls-9" x="51.14" y="0">il </tspan><tspan class="cls-10" x="63.31" y="0">w</tspan><tspan class="cls-11" x="75.79" y="0">ax</tspan><tspan class="cls-12" x="92.61" y="0"> </tspan></text><path class="cls-13" d="M12.4,46.31" transform="translate(0 26.07)"/><path class="cls-13" d="M2.4,5.31" transform="translate(0 26.07)"/><path class="cls-14" d="M13.4,45.31" transform="translate(0 26.07)"/><path class="cls-14" d="M.4,4.31" transform="translate(0 26.07)"/><path class="cls-15" d="M19.4,47.31" transform="translate(0 26.07)"/><path class="cls-15" d="M33.4,5.31" transform="translate(0 26.07)"/><text y="26.07"></text><path class="cls-16" d="M4.74,34.31" transform="translate(0 26.07)"/><path class="cls-16" d="M5.9,30.31" transform="translate(0 26.07)"/><line class="cls-17" x1="8.9" y1="58.88" x2="96.9" y2="58.88"/><text y="26.07"></text></svg>